<svg id="bd73179b-49e9-408e-8456-ab5720824cf3" data-name="Laag 1" xmlns="http://www.w3.org/2000/svg" viewBox="0 0 221.84 189.56">
  <g>
    <path d="M32,1.8,94.53,73.24l-1.63,3L24.36,9A5.26,5.26,0,0,1,31.73,1.5l.28.3" fill="#e7333f"/>
    <path d="M42.67,39,89.4,82.8l-1,1.82-.92,1.71L35.88,47a5.26,5.26,0,0,1,6.37-8.37l.42.35" fill="#1a9fd9"/>
    <path d="M57.84,4l42.28,58.83-2.14,4L49.58,10.47a5.26,5.26,0,0,1,8-6.85,4.39,4.39,0,0,1,.28.36" fill="#2f2f2f"/>
    <path d="M83.11,7.16l23.43,43.68-2.83,5.28L74.13,12.6a5.26,5.26,0,0,1,8.7-5.91c.1.16.2.32.28.47" fill="#edca25"/>
    <path d="M197.75,8.72l-.28.3L123.2,81.89,122,83.06l-4.3,4.22-1.16,1.14L111.84,93l-.92.91-4.72,4.62-1.15,1.14-.08.08-.53-.41.07-.09L105.62,98,110,93l.93-1.06,4.37-5,1.21-1.37L120.57,81l1.32-1.51L189.83,1.8a5.26,5.26,0,0,1,7.92,6.92" fill="#e7333f"/>
    <path d="M186.37,46.66,186,47,128.09,91l-.45.34-4.54,3.44-.65.5-5.18,3.94-.54.41-5.18,3.94-.7.53-.12.09-.54-.42.1-.1L111,103l4.71-4.42.57-.54L121,93.62l.75-.7,4.24-4,.65-.61L179.17,39a5.26,5.26,0,0,1,7.2,7.67" fill="#edca25"/>
    <path d="M172.54,10.1c-.09.13-.19.25-.29.37L118.39,72.92,116.56,75l-4.17,4.83-1.59,1.85-3.51,4.07-.88,1-1.27,1.46-4.43,5.14-1.55,1.8,0,.07-.3-.24,0-.07,1.42-2,4-5.59,1.2-1.67,4-5.58L111,78l3.87-5.4,1.9-2.66,25.41-35.5L164,4a5.26,5.26,0,1,1,8.55,6.12" fill="#2f2f2f"/>
    <path d="M148,12.13a4.48,4.48,0,0,1-.28.47L113.24,63.32l-2.32,3.42L107,72.44l-1.86,2.74-3.92,5.76-1.43,2.11-4,5.83-1.71,2.51,0,.06-.43-.34,0-.06,1.5-2.8,3.43-6.37L100,79.43l3.41-6.36,1.77-3.3,3.46-6.45L110.92,59,138.73,7.16a5.25,5.25,0,1,1,9.26,5" fill="#fff"/>
    <path d="M148,12.13a4.48,4.48,0,0,1-.28.47L113.24,63.32l-2.32,3.42L107,72.44l-1.86,2.74-3.92,5.76-1.43,2.11-4,5.83-1.71,2.51,0,.06-.43-.34,0-.06,1.5-2.8,3.43-6.37L100,79.43l3.41-6.36,1.77-3.3,3.46-6.45L110.92,59,138.73,7.16a5.25,5.25,0,1,1,9.26,5" fill="#1a9fd9"/>
    <rect y="130.83" width="4.26" height="32.09" fill="#2f2f2f"/>
    <path d="M27.18,163.52a16.65,16.65,0,1,1,0-33.29,16.1,16.1,0,0,1,8.1,2.11A15.25,15.25,0,0,1,41,138l-3.71,2.15a10.4,10.4,0,0,0-4.11-4.24,11.85,11.85,0,0,0-6-1.58,12.11,12.11,0,0,0-9,3.58,12.5,12.5,0,0,0,9.05,21.41,11.76,11.76,0,0,0,6-1.59,10.41,10.41,0,0,0,4.11-4.19L41,155.68a15.08,15.08,0,0,1-5.73,5.7,16,16,0,0,1-8.12,2.14" fill="#2f2f2f"/>
    <polygon points="66.66 130.83 70.87 130.83 70.87 162.92 66.66 162.92 66.66 148.48 51.07 148.48 51.07 162.92 46.81 162.92 46.81 130.83 51.07 130.83 51.07 144.45 66.66 144.45 66.66 130.83" fill="#2f2f2f"/>
    <polygon points="99.25 130.83 99.25 134.87 89.76 134.87 89.76 162.92 85.54 162.92 85.54 134.87 76.1 134.87 76.1 130.83 99.25 130.83" fill="#2f2f2f"/>
    <polygon points="108.69 158.89 123.59 158.89 123.59 162.92 104.43 162.92 104.43 130.83 123.36 130.83 123.36 134.87 108.69 134.87 108.69 144.72 122.22 144.72 122.22 148.71 108.69 148.71 108.69 158.89" fill="#2f2f2f"/>
    <path d="M160.41,147v1.93a13.89,13.89,0,0,1-4.31,10.43q-4.32,4.14-11.42,4.15a16.31,16.31,0,0,1-12.12-4.84,16.75,16.75,0,0,1,20.19-26.31,15.22,15.22,0,0,1,5.73,5.61l-3.67,2.16a10.29,10.29,0,0,0-4.15-4.2,12.61,12.61,0,0,0-15.12,19.83,12.39,12.39,0,0,0,9.19,3.58,12.14,12.14,0,0,0,7.79-2.37,9.59,9.59,0,0,0,3.62-6.12H144.36V147Z" fill="#2f2f2f"/>
    <polygon points="170.81 158.89 185.71 158.89 185.71 162.92 166.55 162.92 166.55 130.83 185.48 130.83 185.48 134.87 170.81 134.87 170.81 144.72 184.34 144.72 184.34 148.71 170.81 148.71 170.81 158.89" fill="#2f2f2f"/>
    <polygon points="221.84 130.83 221.84 162.92 217.62 162.92 217.62 137.84 207.12 155.31 206.6 155.29 196.07 137.82 196.07 162.92 191.81 162.92 191.81 130.83 196.62 130.83 206.89 147.87 217.07 130.83 221.84 130.83" fill="#2f2f2f"/>
    <polygon points="75.04 176.26 68.44 176.26 68.44 181.09 74.77 181.09 74.77 182.96 68.44 182.96 68.44 189.28 66.47 189.28 66.47 174.39 75.04 174.39 75.04 176.26" fill="#e7333f"/>
    <polygon points="87.94 187.41 94.86 187.41 94.86 189.28 85.96 189.28 85.96 174.39 94.75 174.39 94.75 176.26 87.94 176.26 87.94 180.84 94.22 180.84 94.22 182.69 87.94 182.69 87.94 187.41" fill="#e7333f"/>
    <polygon points="107.74 187.41 114.65 187.41 114.65 189.28 105.76 189.28 105.76 174.39 114.55 174.39 114.55 176.26 107.74 176.26 107.74 180.84 114.02 180.84 114.02 182.69 107.74 182.69 107.74 187.41" fill="#e7333f"/>
    <path d="M130.36,189.56a6.23,6.23,0,0,1-3.56-1,5.15,5.15,0,0,1-2.08-2.68l1.7-1a4.42,4.42,0,0,0,6.33,2.08,2,2,0,0,0,.8-1.67,1.8,1.8,0,0,0-.8-1.6A11.65,11.65,0,0,0,130,182.6l-1.42-.49a9.31,9.31,0,0,1-1.23-.54,3.88,3.88,0,0,1-1.09-.77,3.71,3.71,0,0,1-.94-2.48,3.78,3.78,0,0,1,1.36-3.07,5,5,0,0,1,3.32-1.14,5.39,5.39,0,0,1,3.08.89,5.66,5.66,0,0,1,2,2.36l-1.66,1A3.42,3.42,0,0,0,130,176a3,3,0,0,0-2,.6,2,2,0,0,0-.74,1.62,1.72,1.72,0,0,0,.7,1.49,9.33,9.33,0,0,0,2.43,1.06l.86.31.81.28c.36.13.63.24.8.32l.69.36a3,3,0,0,1,.65.45l.5.52a2.05,2.05,0,0,1,.41.63,5.42,5.42,0,0,1,.23.74,4.17,4.17,0,0,1,.09.88,3.8,3.8,0,0,1-1.42,3.12,5.75,5.75,0,0,1-3.73,1.16" fill="#e7333f"/>
    <polygon points="155.37 174.39 155.37 176.26 150.96 176.26 150.96 189.28 149.01 189.28 149.01 176.26 144.62 176.26 144.62 174.39 155.37 174.39" fill="#e7333f"/>
  </g>
</svg>
