<svg id="aca2987a-0256-4008-8c53-dcd882b6964e" data-name="Laag 1" xmlns="http://www.w3.org/2000/svg" viewBox="0 0 424.97 104.2">
  <g>
    <g>
      <path d="M9.22,1.8,71.74,73.24l-1.63,3L1.57,9A5.26,5.26,0,0,1,8.94,1.5l.28.3" fill="#e7333f"/>
      <path d="M19.88,39,66.61,82.8l-1,1.82-.91,1.71L13.09,47a5.26,5.26,0,0,1,6.37-8.37c.15.12.29.23.42.35" fill="#1a9fd9"/>
      <path d="M35.05,4,77.33,62.81l-2.14,4L26.79,10.47a5.26,5.26,0,0,1,8-6.85,4.39,4.39,0,0,1,.28.36" fill="#2f2f2f"/>
      <path d="M60.32,7.16,83.75,50.84l-2.83,5.28L51.34,12.6A5.26,5.26,0,0,1,60,6.69c.1.16.2.32.28.47" fill="#edca25"/>
      <path d="M175,8.72l-.28.3L100.41,81.89l-1.19,1.17-4.3,4.22-1.17,1.14L89.05,93l-.92.91-4.72,4.62L82.26,99.7l-.08.08-.53-.41.08-.09L82.83,98l4.37-5L88.13,92l4.38-5,1.2-1.37L97.78,81l1.32-1.51L167,1.8A5.26,5.26,0,0,1,175,8.72" fill="#e7333f"/>
      <path d="M163.58,46.66l-.41.35L105.3,91l-.45.34-4.54,3.44-.65.5-5.18,3.94-.54.41-5.18,3.94-.7.53-.12.09-.54-.42.1-.1.69-.64,4.71-4.42.57-.54,4.75-4.46.75-.7,4.24-4,.65-.61L156.38,39a5.26,5.26,0,0,1,7.2,7.67" fill="#edca25"/>
      <path d="M149.75,10.1a3.37,3.37,0,0,1-.29.37L95.6,72.92,93.77,75,89.6,79.87,88,81.72,84.5,85.79l-.88,1-1.26,1.46-4.44,5.14-1.55,1.8-.05.07L76,95l0-.07,1.41-2,4-5.59,1.2-1.67,4-5.58L88.23,78l3.87-5.4L94,69.92l25.41-35.5L141.2,4a5.26,5.26,0,1,1,8.55,6.12" fill="#2f2f2f"/>
      <path d="M125.2,12.13a4.48,4.48,0,0,1-.28.47L90.45,63.32l-2.32,3.42-3.88,5.7-1.86,2.74-3.92,5.76L77,83.05l-4,5.83-1.71,2.51,0,.06-.43-.34,0-.06,1.5-2.8,3.43-6.37,1.31-2.45,3.41-6.36,1.77-3.3,3.46-6.45L88.13,59,115.94,7.16a5.25,5.25,0,1,1,9.26,5" fill="#fff"/>
      <path d="M125.2,12.13a4.48,4.48,0,0,1-.28.47L90.45,63.32l-2.32,3.42-3.88,5.7-1.86,2.74-3.92,5.76L77,83.05l-4,5.83-1.71,2.51,0,.06-.43-.34,0-.06,1.5-2.8,3.43-6.37,1.31-2.45,3.41-6.36,1.77-3.3,3.46-6.45L88.13,59,115.94,7.16a5.25,5.25,0,1,1,9.26,5" fill="#1a9fd9"/>
    </g>
    <g>
      <g>
        <rect x="203.13" y="23.03" width="4.26" height="32.09" fill="#2f2f2f"/>
        <path d="M230.32,55.72a16.32,16.32,0,0,1-16.78-16.64,16.32,16.32,0,0,1,16.78-16.64,16,16,0,0,1,8.09,2.11,15.16,15.16,0,0,1,5.75,5.68l-3.71,2.16a10.32,10.32,0,0,0-4.1-4.24,11.76,11.76,0,0,0-6-1.59,12.11,12.11,0,0,0-12.56,12.52,12.11,12.11,0,0,0,12.56,12.47,11.85,11.85,0,0,0,6-1.58,10.53,10.53,0,0,0,4.1-4.2l3.71,2.11a15,15,0,0,1-5.73,5.71,16,16,0,0,1-8.11,2.13" fill="#2f2f2f"/>
        <polygon points="269.79 23.03 274.01 23.03 274.01 55.12 269.79 55.12 269.79 40.68 254.2 40.68 254.2 55.12 249.94 55.12 249.94 23.03 254.2 23.03 254.2 36.65 269.79 36.65 269.79 23.03" fill="#2f2f2f"/>
        <polygon points="302.38 23.03 302.38 27.07 292.89 27.07 292.89 55.12 288.68 55.12 288.68 27.07 279.23 27.07 279.23 23.03 302.38 23.03" fill="#2f2f2f"/>
        <polygon points="311.83 51.09 326.73 51.09 326.73 55.12 307.56 55.12 307.56 23.03 326.5 23.03 326.5 27.07 311.83 27.07 311.83 36.92 325.35 36.92 325.35 40.91 311.83 40.91 311.83 51.09" fill="#2f2f2f"/>
        <path d="M363.54,39.22v1.92a13.89,13.89,0,0,1-4.31,10.43q-4.31,4.16-11.42,4.15a16.31,16.31,0,0,1-12.12-4.84,16.09,16.09,0,0,1-4.79-11.8,16.79,16.79,0,0,1,25-14.51,15.14,15.14,0,0,1,5.73,5.61L358,32.34a10.32,10.32,0,0,0-4.15-4.19,12.39,12.39,0,0,0-18.68,10.93A12.1,12.1,0,0,0,338.67,48a12.37,12.37,0,0,0,9.19,3.58,12.18,12.18,0,0,0,7.79-2.36,9.66,9.66,0,0,0,3.63-6.12H347.49V39.22Z" fill="#2f2f2f"/>
        <polygon points="373.94 51.09 388.84 51.09 388.84 55.12 369.68 55.12 369.68 23.03 388.62 23.03 388.62 27.07 373.94 27.07 373.94 36.92 387.47 36.92 387.47 40.91 373.94 40.91 373.94 51.09" fill="#2f2f2f"/>
        <polygon points="424.97 23.03 424.97 55.12 420.75 55.12 420.75 30.05 410.25 47.51 409.73 47.49 399.2 30.03 399.2 55.12 394.94 55.12 394.94 23.03 399.75 23.03 410.02 40.07 420.21 23.03 424.97 23.03" fill="#2f2f2f"/>
      </g>
      <g>
        <polygon points="278.18 68.46 271.58 68.46 271.58 73.29 277.9 73.29 277.9 75.17 271.58 75.17 271.58 81.49 269.6 81.49 269.6 66.59 278.18 66.59 278.18 68.46" fill="#e7333f"/>
        <polygon points="291.07 79.62 297.99 79.62 297.99 81.49 289.1 81.49 289.1 66.59 297.88 66.59 297.88 68.46 291.07 68.46 291.07 73.04 297.35 73.04 297.35 74.89 291.07 74.89 291.07 79.62" fill="#e7333f"/>
        <polygon points="310.87 79.62 317.79 79.62 317.79 81.49 308.89 81.49 308.89 66.59 317.68 66.59 317.68 68.46 310.87 68.46 310.87 73.04 317.15 73.04 317.15 74.89 310.87 74.89 310.87 79.62" fill="#e7333f"/>
        <path d="M333.49,81.76a6.32,6.32,0,0,1-3.56-1,5.21,5.21,0,0,1-2.08-2.69l1.71-1a4.39,4.39,0,0,0,6.32,2.08,2,2,0,0,0,.81-1.67,1.79,1.79,0,0,0-.81-1.6,12,12,0,0,0-2.7-1.13l-1.43-.49a8.72,8.72,0,0,1-1.22-.54,3.17,3.17,0,0,1-1.75-1.8,3.46,3.46,0,0,1-.29-1.44,3.83,3.83,0,0,1,1.36-3.08,5,5,0,0,1,3.32-1.14,5.3,5.3,0,0,1,3.08.9,5.54,5.54,0,0,1,2,2.36l-1.66,1a3.41,3.41,0,0,0-3.39-2.3,3.06,3.06,0,0,0-1.95.59,2,2,0,0,0-.75,1.62,1.75,1.75,0,0,0,.7,1.49A9.33,9.33,0,0,0,333.6,73l.87.31.8.28a8.61,8.61,0,0,1,.8.32l.69.37a2.68,2.68,0,0,1,.65.44l.5.53a2,2,0,0,1,.42.63,5.31,5.31,0,0,1,.22.73,4.18,4.18,0,0,1,.1.89,3.84,3.84,0,0,1-1.43,3.12,5.73,5.73,0,0,1-3.73,1.15" fill="#e7333f"/>
        <polygon points="358.5 66.59 358.5 68.46 354.1 68.46 354.1 81.49 352.14 81.49 352.14 68.46 347.75 68.46 347.75 66.59 358.5 66.59" fill="#e7333f"/>
      </g>
    </g>
  </g>
</svg>
