<svg xmlns="http://www.w3.org/2000/svg" xmlns:xlink="http://www.w3.org/1999/xlink" version="1.1" id="Layer_1" x="0px" y="0px" viewBox="0 0 313.1 59" style="enable-background:new 0 0 313.1 59;" xml:space="preserve">
<style type="text/css">
	.st0{fill:none;}
	.st2{fill:#999A9B;}
	.st2{fill:#FFFFFF;}
	.st3{fill:#0095CC;}
</style>
<circle class="st0" cx="294.7" cy="29.7" r="18.4"/>
<g>
	<path class="st2" d="M234.7,27.8c-0.1,1.2,0,2.4,0.2,3.7c0.5,3.2,1.7,6,3.5,8.4l5.1,0.1c2.4,0.1,4.1-0.5,4.5-1.3   c0.4-0.8,1-7.9,0.8-9c-0.1-0.8-1-1.3-2.3-1.5c-1.5-0.1-3.6-0.2-6.6-0.3C238,27.9,236.1,27.9,234.7,27.8z"/>
	<path class="st2" d="M268.5,28.3c-3.1-0.1-9.1-0.2-10.7-0.3c-1.9,0-3.3,0-3.3,0c-1.7,0-2.9,0.4-3.2,1.5c-0.2,1.1-0.5,8.2-0.3,9   c0.2,0.8,1.5,1.4,3.5,1.4l12.9,0.3c2.1-2.7,3.5-6,3.8-9.6l-0.1-0.4C271,29.3,270.2,28.5,268.5,28.3z"/>
	<path class="st2" d="M271.3,27.5c0-0.4-0.1-0.9-0.1-1.3c-0.3-2.3-1.1-4.4-2.2-6.3l-0.8-1.2c-0.3-0.5-0.7-1-1.1-1.4   c-0.4,0.1,0.1,1.7,0.3,2.2c0.4,1.1,1.4,6.7,1.4,6.7C269.3,27.7,271.3,27.5,271.3,27.5z"/>
	<path class="st2" d="M260.5,41.3c0,0-14.4-0.2-14.7-0.2c-1.1,0-2.6,0.4-2.7,1.4l-0.3,1.7c3.6,2.4,8.2,3.6,12.8,2.9   c4-0.6,7.5-2.4,10.2-5.1C265.1,41.4,262,41.3,260.5,41.3z"/>
	<path class="st2" d="M241.9,42.5c-0.1-0.2,0-1.1-0.8-1.7c-0.6-0.3-1.5-0.4-2.5-0.5c0.9,1.2,2,2.2,3.2,3.1   C242,42.9,242,42.5,241.9,42.5z"/>
	<path class="st2" d="M268,25.3c-0.1-1.1-1.4-7.3-2-8.5c-0.1-0.2-0.1-0.5-0.5-0.6c-1.1-0.3-2.4-0.4-4.3-0.4c-1.7,0-4.1-0.2-4.8-0.2   c-0.3,0.1-0.5,0.2-0.6,0.4c-0.1,0.1-0.3,0.4-0.5,0.7c-0.3,0.8,0.1,4.2,0.2,5c0.1,0.4,0,2.1-0.1,3.5l0,0.6c0,1,1.6,1.7,2.9,1.7   c0,0,8.6,0.5,9.2-0.2C268.2,27,268,25.8,268,25.3z"/>
	<path class="st2" d="M244.2,13.1c0,0,0-0.3,0-0.3c-0.9,0.5-1.8,1.1-2.6,1.8l1.2,0.1C244.4,14.3,244.5,14.1,244.2,13.1z"/>
	<path class="st2" d="M260.6,13.7c0.1,0.7,1,1.4,2.2,1.7c1.2,0.1,2.3,0.1,2.8,0.2c-1.5-1.4-3.3-2.6-5.2-3.5   C260.5,12.4,260.6,13.7,260.6,13.7z"/>
	<path class="st2" d="M250.4,10.7c-1.7,0.2-3.2,0.7-4.7,1.4c0,0.5,0,0.9,0,1.1c0.1,0.8,0.9,1.3,2.2,1.3l10,0.3   c1.3,0,2.2-0.7,2.1-1.7c0,0,0-0.5-0.1-1.3C256.9,10.7,253.7,10.2,250.4,10.7z"/>
	<path class="st2" d="M254.4,26.2c0.2-0.8,0.1-7.9-0.1-9c-0.1-0.4-0.1-0.7-0.6-1c-2.1-0.3-5.7-0.7-7.6-0.9c-1.8-0.1-3.8-0.2-5.1-0.2   c-3.3,2.9-5.5,6.9-6.1,11.4c0.5,0.4,1.3,0.6,2.2,0.6l14.1,0.3c0.6,0,1.2,0,1.7-0.2c0.7-0.2,0.9-0.3,1.3-0.7   C254.1,26.6,254.3,26.2,254.4,26.2z"/>
	<path class="st2" d="M234.7,27.7c0,0,0,0.1,0,0.1c1.4,0.1,3.3,0.1,5.2,0.1c3,0,5.1,0.2,6.6,0.3c-0.4-0.1-0.9-0.1-1.5-0.1   C245,28.1,239.5,27.8,234.7,27.7z"/>
</g>
<g>
	<path class="st2" d="M227.8,37.5c-2.9,6.5-9.5,11.1-17.1,11.1c-3,0-5.9-0.7-8.4-2c-0.5-1.4-0.8-2.9-0.8-4.4   c0-5.6,3.4-10.3,8.2-12.4c0.3,1.4,0.6,2.7,0.8,3.7c0,0,0.4,1.8,0.9,3c0.2,0.4,0.3,0.8,0.5,1.2l0.2,0.4l0.3,0.7   c0.2,0.4,0.6,0.9,0.6,0.9c0.3,0.6,0.7,1.1,1,1.6c-0.1,0.1-0.1,0.2-0.2,0.3h0c0,0.1-0.1,0.3-0.1,0.5l0,0c0,0,0,0.1,0,0.1   c0,0.2,0,0.3,0.1,0.5c0,0,0,0.3,0.1,0.4l0.1,0l0,0c0.3,0.3,0.9,0.5,1.6,0.6c1.3,0.1,1.5-1.3,1.4-1.9c0-0.2-0.1-0.4-0.3-0.6l0,0   c0-0.1-0.1-0.1-0.1-0.1h0c-0.1-0.1-0.1-0.2-0.2-0.2l-0.1,0l0,0l0-0.1c-0.1-0.1-0.3-0.2-0.3-0.2l-0.1,0l-0.3-0.1l0,0c0,0,0,0,0-0.1   c0,0,0,0-0.1,0c-0.6,0-1.2-2.1-1.9-3.5c-0.1-0.3-0.3-0.7-0.5-1.2c-0.2-0.6-0.4-1.3-0.6-1.9c-0.2-0.8-0.4-1.8-0.6-2.9l0,0   c-0.1-0.5-0.2-0.9-0.3-1.1l0,0c0-0.1-0.1-0.3-0.1-0.4c1.2-0.4,2.5-0.5,3.8-0.5C221,28.6,225.9,32.3,227.8,37.5"/>
	<path class="st2" d="M193.2,23.4l15,0l-13.6,16c-1.7-2.8-2.6-6-2.6-9.5C192,27.6,192.4,25.4,193.2,23.4"/>
	<path class="st2" d="M209.3,27.9c-5.6,2.3-9.6,7.8-9.6,14.3c0,1,0.1,2,0.3,2.9c-1.7-1.2-3.1-2.6-4.3-4.3l13.1-15.4   C208.9,26.3,209.1,27.1,209.3,27.9"/>
	<path class="st2" d="M228.7,35c-2.6-4.9-7.7-8.2-13.6-8.2c-1.5,0-2.8,0.2-4.2,0.6c-0.7-3.2-1.8-8.4-1.8-8.4h7c0.1,0,2,0,2,2   c0,1.9-2.1,2-2.3,2h-3.2c-1.1,0-1.1,1.7,0,1.7h3.2c0,0,0.3,0,0.6-0.1c1.9-0.3,3.4-1.5,3.4-3.7c0-2.2-1.6-3.7-3.7-3.7h-8   c-0.6,0-1,0.5-0.8,1l0.7,3.4h-14c3-6.3,9.4-10.6,16.8-10.6c10.3,0,18.7,8.4,18.7,18.7C229.5,29.8,229.3,34,228.7,35"/>
</g>
<g>
	<path class="st2" d="M294.7,11.3c-10.1,0-18.4,8.2-18.4,18.4c0,4.1,1.3,7.8,3.6,10.8c0-0.2,0-0.5,0.1-0.7c0.5-2.7,2.4-4.7,3.7-7   c0.5-0.8,0.8-1.7,0.9-2.7c0.1-0.5,0.2-3.6-0.3-3.9c0,0,3.6,1.5,3.3,5.3c3.8-2.1,3.8-9,0.2-11.6c3.7,0.6,5.8,3.6,6.9,6.9   c0.7,2.1,1,4.2,0,6.3c1.1-0.3,1.9-1.3,2.3-2.4c0.2-0.5,0.8-2.5,0.2-2.9c1.9,1.4,2.5,2.6,3.3,4.1c0.7,1.5,1,3.4,1.1,5   c0.1,2.3-0.2,4.6-1.2,6.7c-0.7,1.5-2.2,3-3.5,4c-0.2,0.1-0.4,0.2-0.6,0.3c9.5-0.7,16.9-8.6,16.9-18.3   C313.1,19.5,304.9,11.3,294.7,11.3z"/>
</g>
<path class="st2" d="M29.3,39.3h2.5c1.1,0,2.1,0.3,2.9,0.8c0.8,0.6,1.3,1.7,1.3,3.3c0,1.6-0.4,2.7-1.3,3.4c-0.9,0.6-1.8,1-2.6,1  h-2.8V39.3z M31,41v5.1h1.3c0.4,0,0.9-0.2,1.3-0.6c0.4-0.4,0.7-1.1,0.7-2c0-0.9-0.2-1.6-0.7-1.9c-0.5-0.4-0.9-0.6-1.2-0.6H31z"/>
<path class="st2" d="M40.1,39.3h4c0.9,0,1.6,0.3,2.1,0.8c0.5,0.5,0.7,1.3,0.7,2.2c0,0.9-0.6,1.7-1.6,2.1l1.6,3.2h-2l-1.5-3l-1.7,0v3  h-1.7V39.3z M41.8,41v2.2h2.2c0.4,0,0.7-0.1,0.9-0.3c0.2-0.2,0.4-0.5,0.4-0.8c0-0.3-0.1-0.6-0.4-0.8C44.6,41,44.3,41,44,41H41.8z"/>
<rect x="51" y="39.3" class="st2" width="1.7" height="8.4"/>
<polygon class="st2" points="57,39.3 62.7,39.3 62.7,41 58.7,41 58.7,42.5 61.1,42.5 61.1,44 58.7,44 58.7,46.1 63,46.1 63,47.7   57,47.7 "/>
<polygon class="st2" points="72.4,39.3 74.5,39.3 76,42 77.5,39.3 79.6,39.3 77,43.4 79.7,47.7 77.6,47.7 76,44.8 74.4,47.7   72.4,47.7 75,43.4 "/>
<polygon class="st2" points="89,39.3 90.7,39.3 90.7,42.9 93.7,39.3 95.7,39.3 93.3,42.2 96.3,47.7 94.3,47.7 92,43.7 90.7,45.2   90.7,47.7 89,47.7 "/>
<path class="st2" d="M102.4,39.3h1.6l3.2,8.4h-1.9l-0.8-1.8h-3l-0.6,1.8h-1.8L102.4,39.3z M102.1,44.3l1.9,0l-1-2.8L102.1,44.3z"/>
<path class="st2" d="M110.8,39.3h4c0.9,0,1.6,0.3,2.1,0.8c0.5,0.5,0.7,1.3,0.7,2.2c0,0.9-0.6,1.7-1.6,2.1l1.6,3.2h-2l-1.5-3l-1.7,0  v3h-1.7V39.3z M112.5,41v2.2h2.2c0.4,0,0.7-0.1,0.9-0.3c0.2-0.2,0.3-0.5,0.3-0.8c0-0.3-0.1-0.6-0.3-0.8c-0.2-0.2-0.5-0.3-0.8-0.3  H112.5z"/>
<path class="st2" d="M124,39.3h1.6l3.2,8.4h-1.9l-0.8-1.8h-3l-0.6,1.8h-1.8L124,39.3z M123.7,44.3l1.9,0l-1-2.8L123.7,44.3z"/>
<polygon class="st2" points="132.4,39.3 134,39.3 134,42.9 137,39.3 139.1,39.3 136.6,42.2 139.7,47.7 137.7,47.7 135.4,43.7   134,45.2 134,47.7 132.4,47.7 "/>
<polygon class="st2" points="142.9,39.3 149.4,39.3 149.4,41 147,41 147,47.7 145.2,47.7 145.2,41 142.9,41 "/>
<polygon class="st2" points="153.4,39.3 159.2,39.3 159.2,41 155.1,41 155.1,42.5 157.5,42.5 157.5,44 155.1,44 155.1,46.1   159.4,46.1 159.4,47.7 153.4,47.7 "/>
<path class="st2" d="M163.7,39.3h4c0.9,0,1.6,0.3,2.1,0.8c0.5,0.5,0.7,1.3,0.7,2.2c0,0.9-0.6,1.7-1.6,2.1l1.6,3.2h-2l-1.5-3l-1.7,0  v3h-1.7V39.3z M165.4,41v2.2h2.2c0.4,0,0.7-0.1,0.9-0.3c0.2-0.2,0.3-0.5,0.3-0.8c0-0.3-0.1-0.6-0.3-0.8c-0.2-0.2-0.5-0.3-0.8-0.3  H165.4z"/>
<path class="st3" d="M181.2,59V0.8c0-0.4,0.3-0.8,0.8-0.8c0.4,0,0.8,0.3,0.8,0.8V59"/>
<rect y="12.4" class="st3" width="4.2" height="21"/>
<path class="st3" d="M20.8,12.1c1.5,0,2.9,0.3,4.3,1c1.3,0.7,2.5,1.9,3.3,3.6l-3.9,1.9c-0.7-1.4-1.8-2.2-3.3-2.3  c-1.5-0.1-2.8,0.3-3.8,1.3c-1,1-1.6,2.6-1.7,4.8c-0.1,2.2,0.3,3.9,1.3,5.2c1,1.3,2.2,1.9,3.8,1.9c1.6,0,2.9-0.9,4-2.6l3.5,2.1  c-1,1.8-2.1,3-3.4,3.7c-1.3,0.7-3,1-5.2,1c-2.2-0.1-4.1-1-5.8-2.7c-1.7-1.8-2.6-4.4-2.6-8.1c0-3.6,0.9-6.3,2.9-8.2  C16.3,13,18.5,12.1,20.8,12.1"/>
<polygon class="st3" points="35.1,12.4 39.3,12.4 39.3,20.6 47.8,20.6 47.8,12.4 52,12.4 52,33.5 47.8,33.5 47.8,24.7 39.3,24.7   39.3,33.5 35.1,33.5 "/>
<polygon class="st3" points="58.4,12.4 74.7,12.4 74.7,16.6 68.6,16.6 68.6,33.5 64.3,33.5 64.3,16.6 58.4,16.6 "/>
<polygon class="st3" points="81.6,12.4 96,12.4 96,16.6 85.8,16.6 85.8,20.4 91.8,20.4 91.8,24.3 85.8,24.3 85.8,29.5 96.6,29.5   96.6,33.5 81.6,33.5 "/>
<path class="st3" d="M110.8,12.2c1.4-0.2,2.9-0.2,4.4,0.2c2.5,0.7,4.2,2.3,5.2,4.8l-3.7,1.9c-1.3-2.2-3.1-3.1-5.4-2.7  c-1.1,0.3-2,0.9-2.7,1.9c-0.5,0.5-0.8,1.4-1,2.7c-0.7,4.4,0.6,7.4,3.7,8.7c2.5,0.4,4.2-0.3,5.2-2.3v-0.8h-3.3v-4h7.5  c0.7,6.5-1.7,10.3-7.1,11.2c-5.7,0.4-9.1-2.6-10.2-9C102.9,17.8,105.4,13.6,110.8,12.2"/>
<polygon class="st3" points="128,12.4 142.3,12.4 142.3,16.6 132.1,16.6 132.1,20.4 138.2,20.4 138.2,24.3 132.1,24.3 132.1,29.5   143,29.5 143,33.5 128,33.5 "/>
<polygon class="st3" points="150.5,12.4 154.4,12.4 160.2,25.3 166,12.4 170.1,12.4 170.1,33.5 165.9,33.5 165.9,21.6 160.1,33.8   154.5,21.8 154.5,33.5 150.5,33.5 "/>
</svg>