<svg xmlns="http://www.w3.org/2000/svg" id="aeea649c-10a4-4da0-8c83-9687c5854fa5" data-name="Laag 1" viewBox="0 0 778.23 116.82">
  <g>
    <g>
      <path d="M87.17,59.17c-1.14,3.74-13.78,43.3-43.55,43.56-23,.2-42.39-23.22-43.56-43.56C-2.08,22.08,56-10,78.1,2.91,92.86,11.51,92.78,40.74,87.17,59.17Z" transform="translate(0 0)" fill="#00a9eb" opacity="0.7"/>
      <path d="M130.37,59.14c.53,38.21-71.44,69-90.26,53.67-14.46-11.75,1.52-51.44,2.44-53.67C47,48.41,60.46,15.72,86.46,15.23,108.94,14.8,130.09,38.65,130.37,59.14Z" transform="translate(0 0)" fill="#e9028c" opacity="0.7"/>
      <path d="M174.29,59.14c1.84,20.07-22.82,45.14-43.92,43.92-15-.88-24.64-15.22-43.91-43.92C69.47,33.85,60.61,20.66,65.11,14,76.37-2.62,170.88,22,174.29,59.14Z" transform="translate(0 0)" fill="#fdf105" opacity="0.7"/>
    </g>
    <g fill='#ffffff'>
      <path d="M214.61,80.87V36.13h16.64a24.5,24.5,0,0,1,9.67,1.77,19.54,19.54,0,0,1,11.14,11.87,26.27,26.27,0,0,1,1.41,8.67,25.72,25.72,0,0,1-1.57,9.23,19.59,19.59,0,0,1-11.52,11.59,24.89,24.89,0,0,1-9.13,1.61ZM243,58.44a17.54,17.54,0,0,0-.79-5.39,12,12,0,0,0-2.29-4.19,10,10,0,0,0-3.7-2.71,12.46,12.46,0,0,0-5-.94h-6.34V71.79h6.34a12,12,0,0,0,5-1A10.24,10.24,0,0,0,239.94,68a12.66,12.66,0,0,0,2.26-4.22A17.31,17.31,0,0,0,243,58.44Z" transform="translate(0 0)"/>
      <path d="M264.2,80.87V36.13h20.09a13,13,0,0,1,5.81,1.33,15.64,15.64,0,0,1,4.61,3.46,16.2,16.2,0,0,1,3,4.85,14.38,14.38,0,0,1,1.1,5.49,16,16,0,0,1-.5,4,16.28,16.28,0,0,1-1.44,3.62,14.08,14.08,0,0,1-2.29,3,13.73,13.73,0,0,1-3.05,2.3l9.79,16.64H289.75l-8.54-14.43H274.5V80.87Zm10.3-23.44h9.41a3.87,3.87,0,0,0,3.14-1.73,7.14,7.14,0,0,0,1.32-4.44,6.23,6.23,0,0,0-1.51-4.41,4.37,4.37,0,0,0-3.26-1.64h-9.1Z" transform="translate(0 0)"/>
      <path d="M330.05,72.05a8.43,8.43,0,0,0,4.46-1.11A8.79,8.79,0,0,0,337.46,68a12.65,12.65,0,0,0,1.6-4.19,24.85,24.85,0,0,0,.47-4.82V36.13h10.29V59a31.12,31.12,0,0,1-1.16,8.7,20,20,0,0,1-3.58,7.06,16.74,16.74,0,0,1-6.15,4.75,20.87,20.87,0,0,1-8.88,1.73,20.65,20.65,0,0,1-9.1-1.82,17,17,0,0,1-6.12-4.88,20.12,20.12,0,0,1-3.45-7.09,31.68,31.68,0,0,1-1.1-8.45V36.13h10.29V59a23.58,23.58,0,0,0,.5,4.92,13.11,13.11,0,0,0,1.64,4.16,8,8,0,0,0,7.34,4Z" transform="translate(0 0)"/>
      <path d="M362.44,80.87V36.13h10.29V55.41l16.32-19.28H400.6l-16.69,20,17.82,24.76H390l-12.62-18-4.65,4.85V80.87Z" transform="translate(0 0)"/>
      <path d="M408.2,58.19a24.07,24.07,0,0,1,1.41-8A22.32,22.32,0,0,1,413.72,43a21.14,21.14,0,0,1,6.63-5.13,19.41,19.41,0,0,1,8.94-2,18.29,18.29,0,0,1,10.17,2.74,17.37,17.37,0,0,1,6.28,7l-2.64,1.51a15.39,15.39,0,0,0-2.79-3.91,14.64,14.64,0,0,0-3.46-2.55A15.46,15.46,0,0,0,433,39.28a18.6,18.6,0,0,0-3.95-.44,15.73,15.73,0,0,0-7.53,1.74,17.72,17.72,0,0,0-5.53,4.5,19.89,19.89,0,0,0-3.42,6.27,22.26,22.26,0,0,0-1.16,7,20.86,20.86,0,0,0,1.38,7.56,21.07,21.07,0,0,0,3.77,6.34,18.48,18.48,0,0,0,5.65,4.38,15.46,15.46,0,0,0,7,1.63,17.73,17.73,0,0,0,4.14-.5,16.24,16.24,0,0,0,7.72-4.32,14.74,14.74,0,0,0,2.83-3.93l2.76,1.32a15,15,0,0,1-3.08,4.47,19.39,19.39,0,0,1-4.33,3.28,20.57,20.57,0,0,1-5,2,21.81,21.81,0,0,1-5.24.66,17.61,17.61,0,0,1-8.38-2A22.23,22.23,0,0,1,414,74a24.12,24.12,0,0,1-4.3-7.37A23.82,23.82,0,0,1,408.2,58.19Z" transform="translate(0 0)"/>
      <path d="M488.92,78v2.9H459.23V36.13h29.13V39H462.43V56.61h22.66v2.77H462.43V78Z" transform="translate(0 0)"/>
      <path d="M505.49,42.18V80.87h-3.2V36.13h2.45L536,75.51V36.13h3.2V80.87h-3Z" transform="translate(0 0)"/>
      <path d="M586.6,39H570.27V80.87h-3.2V39H550.75v-2.9H586.6Z" transform="translate(0 0)"/>
      <path d="M627.83,78v2.9H598.14V36.13h29.13V39H601.35V56.61H624v2.77H601.35V78Z" transform="translate(0 0)"/>
      <path d="M641.21,80.87V36.13h18.51a11.41,11.41,0,0,1,5.21,1.2A13.35,13.35,0,0,1,669,40.51a15.35,15.35,0,0,1,2.7,4.48,13.65,13.65,0,0,1,1,5,15,15,0,0,1-.76,4.75,13.94,13.94,0,0,1-2.13,4.13,11.85,11.85,0,0,1-3.33,3,11.58,11.58,0,0,1-4.27,1.58l11.11,17.39h-3.7L658.84,64H644.41V80.87ZM644.41,61H660a8.08,8.08,0,0,0,3.89-.94,9.91,9.91,0,0,0,3-2.49,11.08,11.08,0,0,0,1.92-3.53,12.79,12.79,0,0,0,.66-4.06,11.19,11.19,0,0,0-.79-4.13,11.61,11.61,0,0,0-2.13-3.5A10.7,10.7,0,0,0,663.46,40,8.35,8.35,0,0,0,659.6,39H644.41Z" transform="translate(0 0)"/>
      <path d="M685,80.87V75.51h2.76v5.36Z" transform="translate(0 0)"/>
      <path d="M735.17,69.27a11.06,11.06,0,0,1-.94,4.57,11.57,11.57,0,0,1-6.4,6.14,12.37,12.37,0,0,1-4.65.89H702.34V36.13h20.78a8.82,8.82,0,0,1,4.21,1,10.58,10.58,0,0,1,3.2,2.62,12,12,0,0,1,2,3.65,12.39,12.39,0,0,1,.72,4.13,11.94,11.94,0,0,1-1.7,6.24,10,10,0,0,1-4.7,4.15,11.08,11.08,0,0,1,6.05,4.26A11.85,11.85,0,0,1,735.17,69.27ZM705.54,39v17.9h16.32a7.35,7.35,0,0,0,3.33-.76,8.66,8.66,0,0,0,2.61-2,9.13,9.13,0,0,0,1.72-2.86,9.24,9.24,0,0,0,.63-3.34,9.7,9.7,0,0,0-.6-3.43,9.24,9.24,0,0,0-1.63-2.84,7.72,7.72,0,0,0-2.48-2,6.94,6.94,0,0,0-3.2-.73ZM732,68.83a9.88,9.88,0,0,0-2.38-6.39,8.59,8.59,0,0,0-2.67-2,7.47,7.47,0,0,0-3.3-.76H705.54V78h17.64a8,8,0,0,0,3.49-.76,8.58,8.58,0,0,0,2.76-2,10.42,10.42,0,0,0,1.85-2.92A8.73,8.73,0,0,0,732,68.83Z" transform="translate(0 0)"/>
      <path d="M778.23,78v2.9H748.54V36.13h29.13V39H751.74V56.61H774.4v2.77H751.74V78Z" transform="translate(0 0)"/>
    </g>
  </g>
</svg>